<svg width="326" height="65" viewBox="0 0 326 65" fill="none" xmlns="http://www.w3.org/2000/svg">
<g filter="url(#filter0_d)">
<path d="M68.9766 44.3203H81.9609L81.3047 48H64.125L70.0312 13.875H74.25L68.9766 44.3203ZM98.9062 48C98.8125 47.5312 98.7734 47.0703 98.7891 46.6172L98.8828 45.2344C97.0859 47.4062 95.1484 48.4922 93.0703 48.4922C91.0391 48.4922 89.4531 47.8359 88.3125 46.5234C87.1875 45.1953 86.6875 43.4453 86.8125 41.2734C86.9844 38.6484 88.0625 36.5469 90.0469 34.9688C92.0469 33.3906 94.6641 32.6016 97.8984 32.6016H100.711L101.109 29.9062C101.391 27.1094 100.336 25.7109 97.9453 25.7109C96.7109 25.7109 95.6797 26.0781 94.8516 26.8125C94.0391 27.5312 93.5234 28.4766 93.3047 29.6484L89.2969 29.6719C89.5 27.5312 90.4688 25.7344 92.2031 24.2812C93.9531 22.8281 96.0078 22.1172 98.3672 22.1484C100.648 22.1797 102.398 22.8828 103.617 24.2578C104.852 25.6172 105.352 27.5234 105.117 29.9766L103.055 42.4688C102.914 43.3594 102.859 44.2109 102.891 45.0234L103.031 47.6016L102.984 48H98.9062ZM93.9141 44.7422C95.9453 44.7422 97.6953 43.75 99.1641 41.7656L100.219 35.6953L98.3672 35.6719C96.7734 35.6719 95.3594 35.9688 94.125 36.5625C92.8906 37.1406 92.0156 37.9531 91.5 39C91 40.0312 90.8281 41.1562 90.9844 42.375C91.1875 43.9531 92.1641 44.7422 93.9141 44.7422ZM115.945 41.0391L123.633 22.6406H128.062L114.938 51.9375C114.047 54.0625 112.984 55.6641 111.75 56.7422C110.531 57.8359 109.203 58.3594 107.766 58.3125C107.281 58.2969 106.516 58.1562 105.469 57.8906L105.867 54.375L106.734 54.5156C108.781 54.6094 110.375 53.5625 111.516 51.375L113.227 47.5312L110.367 22.6406H114.633L115.945 41.0391ZM129 34.1953C129.516 30.5547 130.758 27.625 132.727 25.4062C134.711 23.1719 137.211 22.0938 140.227 22.1719C142.102 22.2188 143.664 22.7656 144.914 23.8125C146.164 24.8438 147.055 26.2734 147.586 28.1016C148.133 29.9297 148.281 31.9453 148.031 34.1484L147.75 36.5391C147.234 40.1641 145.984 43.0781 144 45.2812C142.016 47.4844 139.523 48.5469 136.523 48.4688C134.648 48.4219 133.086 47.8828 131.836 46.8516C130.586 45.8203 129.688 44.3906 129.141 42.5625C128.609 40.7344 128.469 38.7266 128.719 36.5391L129 34.1953ZM132.633 38.25C132.586 40.3438 132.906 41.9688 133.594 43.125C134.297 44.2812 135.352 44.8906 136.758 44.9531C138.57 45.0312 140.07 44.3906 141.258 43.0312C142.445 41.6562 143.242 39.6016 143.648 36.8672L144 34.125L144.117 32.4375C144.164 30.3281 143.828 28.6953 143.109 27.5391C142.406 26.3828 141.359 25.7734 139.969 25.7109C138.125 25.6328 136.586 26.3984 135.352 28.0078C134.133 29.6016 133.344 31.8203 132.984 34.6641L132.703 36.9844L132.633 38.25ZM164.109 45.7734C162.469 47.6484 160.445 48.5547 158.039 48.4922C156.242 48.4609 154.859 47.8047 153.891 46.5234C152.938 45.2422 152.461 43.4531 152.461 41.1562L152.578 39.0234L155.32 22.6406H159.328L156.609 39.0938L156.516 40.8047C156.453 41.9453 156.633 42.8906 157.055 43.6406C157.492 44.375 158.141 44.7578 159 44.7891C161.266 44.8984 163.125 43.7812 164.578 41.4375L167.812 22.6406H171.867L167.484 48H163.664L164.109 45.7734ZM184.477 16.5L183.398 22.6406H187.125L186.539 25.9922H182.836L180.164 41.7656L180.117 42.7031C180.055 44.0312 180.531 44.6953 181.547 44.6953C181.922 44.7109 182.484 44.6328 183.234 44.4609L182.883 48C182.008 48.3125 181.125 48.4531 180.234 48.4219C178.812 48.4219 177.742 47.8359 177.023 46.6641C176.305 45.4922 176.039 43.8359 176.227 41.6953L178.805 25.9922H175.031L175.641 22.6406H179.367L180.445 16.5H184.477ZM205.734 34.6406L203.414 48H199.219L205.125 13.875L215.414 13.8984C218.211 13.9922 220.367 14.9844 221.883 16.875C223.398 18.75 224.023 21.1641 223.758 24.1172C223.477 27.3672 222.312 29.9375 220.266 31.8281C218.219 33.7188 215.586 34.6641 212.367 34.6641L205.734 34.6406ZM206.367 30.9609L212.531 31.0078C214.078 31.0078 215.422 30.6094 216.562 29.8125C217.703 29 218.539 27.8516 219.07 26.3672C219.602 24.8672 219.773 23.3516 219.586 21.8203C219.43 20.5547 218.984 19.5547 218.25 18.8203C217.516 18.0703 216.539 17.6641 215.32 17.6016L208.688 17.5781L206.367 30.9609ZM237.422 48C237.328 47.5312 237.289 47.0703 237.305 46.6172L237.398 45.2344C235.602 47.4062 233.664 48.4922 231.586 48.4922C229.555 48.4922 227.969 47.8359 226.828 46.5234C225.703 45.1953 225.203 43.4453 225.328 41.2734C225.5 38.6484 226.578 36.5469 228.562 34.9688C230.562 33.3906 233.18 32.6016 236.414 32.6016H239.227L239.625 29.9062C239.906 27.1094 238.852 25.7109 236.461 25.7109C235.227 25.7109 234.195 26.0781 233.367 26.8125C232.555 27.5312 232.039 28.4766 231.82 29.6484L227.812 29.6719C228.016 27.5312 228.984 25.7344 230.719 24.2812C232.469 22.8281 234.523 22.1172 236.883 22.1484C239.164 22.1797 240.914 22.8828 242.133 24.2578C243.367 25.6172 243.867 27.5234 243.633 29.9766L241.57 42.4688C241.43 43.3594 241.375 44.2109 241.406 45.0234L241.547 47.6016L241.5 48H237.422ZM232.43 44.7422C234.461 44.7422 236.211 43.75 237.68 41.7656L238.734 35.6953L236.883 35.6719C235.289 35.6719 233.875 35.9688 232.641 36.5625C231.406 37.1406 230.531 37.9531 230.016 39C229.516 40.0312 229.344 41.1562 229.5 42.375C229.703 43.9531 230.68 44.7422 232.43 44.7422ZM261.023 26.5078C260.352 26.3672 259.75 26.2969 259.219 26.2969C257.172 26.2969 255.484 27.4766 254.156 29.8359L251.016 48H246.961L251.367 22.6406L255.281 22.6172L254.719 25.2188C256.203 23.1094 257.875 22.0781 259.734 22.125C260.109 22.1406 260.688 22.2578 261.469 22.4766L261.023 26.5078ZM274.57 41.3203C274.773 39.8359 273.945 38.6016 272.086 37.6172L268.945 35.9766C267.32 35.0703 266.18 34.1094 265.523 33.0938C264.883 32.0781 264.602 30.8984 264.68 29.5547C264.805 27.4141 265.68 25.6406 267.305 24.2344C268.93 22.8281 270.914 22.1406 273.258 22.1719C275.523 22.2344 277.297 22.9844 278.578 24.4219C279.859 25.8438 280.453 27.6641 280.359 29.8828H276.352C276.383 28.6172 276.102 27.625 275.508 26.9062C274.914 26.1719 274.086 25.7891 273.023 25.7578C271.82 25.7578 270.828 26.1016 270.047 26.7891C269.266 27.4609 268.797 28.3359 268.641 29.4141C268.453 30.6797 269.07 31.7188 270.492 32.5312L274.453 34.5469C277.375 36.1719 278.758 38.3281 278.602 41.0156C278.445 43.3125 277.523 45.1484 275.836 46.5234C274.148 47.8828 272.094 48.5312 269.672 48.4688C267.344 48.4375 265.453 47.6797 264 46.1953C262.547 44.6953 261.867 42.7656 261.961 40.4062L266.039 40.4297C266.008 41.8984 266.328 43.0156 267 43.7812C267.672 44.5312 268.625 44.9062 269.859 44.9062C271.156 44.9062 272.227 44.5781 273.07 43.9219C273.93 43.2656 274.43 42.3984 274.57 41.3203ZM292.289 48.4688C289.445 48.4375 287.32 47.4141 285.914 45.3984C284.508 43.3828 283.992 40.6328 284.367 37.1484L284.672 34.6406C285.156 30.7031 286.352 27.625 288.258 25.4062C290.18 23.1719 292.617 22.0938 295.57 22.1719C297.977 22.2344 299.781 23.0625 300.984 24.6562C302.203 26.2344 302.781 28.4609 302.719 31.3359L302.508 34.1484L302.156 36.5625L288.562 36.5391C288.359 37.9453 288.266 39.0469 288.281 39.8438C288.312 41.4219 288.703 42.6641 289.453 43.5703C290.203 44.4609 291.273 44.9141 292.664 44.9297C293.664 44.9609 294.648 44.7656 295.617 44.3438C296.602 43.9062 297.633 43.1484 298.711 42.0703L300.609 44.7188C299.609 46.0312 298.375 46.9922 296.906 47.6016C295.438 48.2109 293.898 48.5 292.289 48.4688ZM295.312 25.7109C292.547 25.5859 290.609 27.2578 289.5 30.7266L288.867 33L298.594 33.0234L298.711 32.4141C298.805 31.6953 298.852 30.9453 298.852 30.1641C298.789 27.3203 297.609 25.8359 295.312 25.7109ZM318.914 26.5078C318.242 26.3672 317.641 26.2969 317.109 26.2969C315.062 26.2969 313.375 27.4766 312.047 29.8359L308.906 48H304.852L309.258 22.6406L313.172 22.6172L312.609 25.2188C314.094 23.1094 315.766 22.0781 317.625 22.125C318 22.1406 318.578 22.2578 319.359 22.4766L318.914 26.5078Z" fill="white"/>
</g>
<g filter="url(#filter1_d)">
<path d="M43 25C43 33.2843 36.2843 40 28 40C19.7157 40 13 33.2843 13 25C13 16.7157 19.7157 10 28 10C36.2843 10 43 16.7157 43 25ZM16.9756 25C16.9756 31.0886 21.9114 36.0244 28 36.0244C34.0886 36.0244 39.0244 31.0886 39.0244 25C39.0244 18.9114 34.0886 13.9756 28 13.9756C21.9114 13.9756 16.9756 18.9114 16.9756 25Z" fill="white"/>
<path d="M35.2648 36.8767L38.4659 34.6074L50.9664 52.0049L50.1853 57.7113L35.2648 36.8767Z" fill="white"/>
</g>
<defs>
<filter id="filter0_d" x="62.125" y="11.875" width="263.234" height="52.4404" filterUnits="userSpaceOnUse" color-interpolation-filters="sRGB">
<feFlood flood-opacity="0" result="BackgroundImageFix"/>
<feColorMatrix in="SourceAlpha" type="matrix" values="0 0 0 0 0 0 0 0 0 0 0 0 0 0 0 0 0 0 127 0"/>
<feOffset dx="2" dy="2"/>
<feGaussianBlur stdDeviation="2"/>
<feColorMatrix type="matrix" values="0 0 0 0 0 0 0 0 0 0 0 0 0 0 0 0 0 0 0.15 0"/>
<feBlend mode="normal" in2="BackgroundImageFix" result="effect1_dropShadow"/>
<feBlend mode="normal" in="SourceGraphic" in2="effect1_dropShadow" result="shape"/>
</filter>
<filter id="filter1_d" x="11" y="8" width="48.3975" height="55.7824" filterUnits="userSpaceOnUse" color-interpolation-filters="sRGB">
<feFlood flood-opacity="0" result="BackgroundImageFix"/>
<feColorMatrix in="SourceAlpha" type="matrix" values="0 0 0 0 0 0 0 0 0 0 0 0 0 0 0 0 0 0 127 0"/>
<feOffset dx="2" dy="2"/>
<feGaussianBlur stdDeviation="2"/>
<feColorMatrix type="matrix" values="0 0 0 0 0 0 0 0 0 0 0 0 0 0 0 0 0 0 0.15 0"/>
<feBlend mode="normal" in2="BackgroundImageFix" result="effect1_dropShadow"/>
<feBlend mode="normal" in="SourceGraphic" in2="effect1_dropShadow" result="shape"/>
</filter>
</defs>
</svg>
