<?xml version="1.0" encoding="utf-8"?>
<svg version="1.0" width="600.000000pt" height="600.000000pt" viewBox="0 0 600.000000 600.000000" preserveAspectRatio="xMidYMid meet" xmlns="http://www.w3.org/2000/svg">
  <g transform="translate(0.000000,600.000000) scale(0.100000,-0.100000)" fill="#ffffff" stroke="none">
    <path d="M 252.499 5303.499 C 195.059 5282.484 46.983 5173.906 44.99 5138.24 C 29.832 4867.035 31.452 1053.405 26.087 999.191 C 21.258 950.389 89.77 949.086 97.77 972.086 C 109.179 933.645 86.347 5032.121 104 5085 C 135.552 5179.512 247 5223 312 5239 C 348 5247 5646.265 5254.412 5646.265 5254.412 C 5699.922 5270.307 5908.499 5131.558 5901 5050 C 5895.134 4986.199 5950 4989 5950 5019 C 5950 5029 5941.103 5055.944 5953.051 5067 C 6001.518 5111.849 5771.883 5326.244 5716 5315 C 5695.02 5310.779 272.597 5310.852 252.499 5303.499 Z"/>
    <path d="M 1790 4932 C 1721 4934 853 4920 825 4911 C 646 4854 536 4744 479 4564 C 461 4504 464.434 1609.047 469 1565 C 485 1410.638 620.942 1170.21 734.565 1160.67 C 1147.804 1125.974 2645.45 1151.907 2678.381 1145.619 C 2719.581 1137.752 2773.551 1162.854 2809 1267 C 2813.917 1281.446 2950.099 2046.555 2963 2081 C 2981.664 2130.832 2959.801 2197.91 2882.701 2189.836 C 2853.332 2186.761 1568.808 2186.731 1568.808 2186.731 C 1571.26 2183.396 1506.662 2201.757 1510.069 2218.249 L 1527 2306 C 1539 2344 1958 4430 1989 4595 C 2033 4825 2059.455 4845.374 1983.455 4899.374 C 1945.455 4925.374 1909 4929 1790 4932 Z M 1932.015 4853.94 C 1955.007 4843.428 1945.958 4754.394 1940 4739 C 1934.586 4725.011 1423 2176 1415 2161 C 1394 2120 1414 2105 1478 2114 C 1504 2117 2905 2121 2905 2121 C 2905 2121 2764.087 1348.296 2754.701 1319.731 C 2732.571 1252.383 2690.708 1232.814 2686.693 1233.476 C 2675.693 1236.476 832.818 1213.719 793.218 1231.435 C 704.123 1271.293 615.092 1392.433 579.826 1490 C 571.607 1512.739 535.101 4548.629 568.881 4583.03 C 587.488 4601.978 622.407 4692.522 653.956 4732.375 C 675.546 4759.648 797.15 4829.707 817.15 4842.179 C 848.15 4853.179 1917.015 4851.94 1932.015 4853.94 Z"/>
    <path d="M 2655 4930 C 2513 4924 2463.906 4935.642 2411.906 4873.642 C 2386.906 4843.642 2365 4686 2336 4520 C 2328 4473 1968 2699 1962 2679 C 1947 2621 1909.453 2522.875 1930.956 2485.157 C 1956.168 2440.933 2065.706 2477.417 2516 2463 C 2879.829 2451.351 2975.118 2473.814 2988.774 2476.793 C 3030.995 2486.003 3065.737 2543.527 3084 2641 C 3092.669 2687.269 3108 2754 3116 2790 C 3161 3004 3248 3413 3256 3460 C 3271 3549 3278 3588 3303 3707 C 3328 3830 3284 3821 3840 3817 C 4258 3814 4322 3811 4375 3796 C 4442 3776 4521 3734 4593 3681 C 4646 3641 4731 3523 4753 3457 C 4761 3434 4773 3399 4780 3380 C 4808 3300 4804 3109 4772 3015 C 4766 2999 4754 2951 4745 2910 C 4725 2824 4637 2638 4583 2570 C 4441 2394 4287 2290 4095 2240 C 3991 2213 3938 2208 3682 2201 L 3449 2195 C 3447.934 2202.461 3387.844 2182.228 3389.244 2172.43 C 3352.244 2133.43 3336.419 2082.317 3332 2023 C 3324.737 1925.491 3147.094 1182.97 3168.839 1143.043 C 3182.313 1118.302 3291 1137 3307 1133 C 3322.061 1129.235 3720 1125 4190 1125 C 5108 1125 5112.301 1121.698 5218.301 1173.698 C 5294.301 1210.698 5309 1225 5347 1261 C 5397 1309 5451.366 1359.366 5483.366 1440.366 C 5486.774 1435.254 5502.243 1526.8 5498.582 1532.291 L 5504 3036 C 5505 4155 5502 4540 5493 4551 C 5491.835 4557.066 5489.045 4580.671 5477.222 4606 C 5450.957 4662.269 5391 4759 5328 4813 C 5259 4872 5184 4906 5095 4920 C 5022 4931 2904 4940 2655 4930 Z M 5160 4833 C 5188.118 4825.559 5235.879 4794.563 5239.537 4793.025 C 5262.188 4783.504 5355.871 4691.148 5371 4650 C 5378.114 4630.651 5394 4599 5403 4580 C 5419 4548 5409.637 4426.962 5420 3026 C 5430.009 1672.872 5419.941 1504.989 5415.647 1490 C 5410.329 1471.435 5292.329 1288.584 5182.826 1238.587 C 5147.395 1222.41 5131 1215 4235 1209 C 3729 1206 3344.4 1212.465 3331.271 1218.761 C 3310.089 1228.918 3254.604 1220.871 3271 1294 C 3278.544 1327.646 3440 2086 3442 2099 C 3421.796 2118.137 3655.325 2122.527 3685 2121 C 3875 2120 3937 2122 3983 2135 C 4015 2143 4117 2157 4137 2165 C 4156 2173 4223 2187 4230 2195 C 4237 2203 4362 2254 4387 2270 C 4412.055 2287.528 4489.792 2340.371 4531 2384 C 4688.806 2551.075 4702.568 2573.467 4803 2790 C 4828.35 2844.656 4876.073 3030.753 4876.713 3035.816 C 4881.592 3074.414 4910.824 3375.591 4867 3414 C 4871.085 3428 4777.751 3622 4763 3632 C 4753 3652 4651.349 3738.644 4635.349 3753.644 C 4605.349 3781.644 4509.748 3823.403 4501.349 3828.644 C 4464.349 3851.732 4397 3880.852 3825 3889 C 3517.017 3893.387 3264 3895 3262 3894 C 3261 3893 3249.834 3844.202 3240 3784 C 3230.178 3723.873 3008.85 2543.062 2979.169 2551.834 C 2959.609 2557.615 2984 2535 2509 2537 C 2244 2538 2025 2541 2023 2544 C 2020 2547 2025 2573 2035 2602 C 2044 2631 2464.492 4777.164 2470.231 4807.644 C 2476.829 4842.685 2493.185 4834.07 2501.547 4839.453 C 2509.547 4843.453 3095 4854 3812 4852 C 5005 4850 5117.795 4844.168 5160 4833 Z"/>
    <path d="M 3779 3539 C 3733 3534 3699.805 3535.668 3662.805 3504.668 C 3603.805 3454.668 3590.524 3351.883 3579.262 3278.815 C 3574.652 3248.903 3480.761 2728.977 3473.475 2691.602 C 3457.028 2607.233 3455.614 2525.433 3489.769 2501.837 C 3523.924 2478.241 3592.981 2489.859 3773.971 2491.824 C 4023.063 2494.528 4100.799 2512.247 4225 2625 C 4269.505 2665.403 4278 2681 4327 2770 C 4394 2892 4439 3100 4425 3223 C 4404 3402 4296 3527 4155 3537 C 4060 3544 3835 3545 3779 3539 Z M 4210 3455 C 4254 3432 4295.887 3405.027 4317 3345 C 4339.943 3279.77 4343.218 3283.871 4344 3149 C 4344.696 3029.002 4290 2858 4269 2820 C 4265 2812 4151.293 2645.53 4084.293 2600.53 C 4064.899 2577.84 3813.829 2549.098 3811 2559 C 3692 2555 3530.217 2538.001 3530 2577 C 3529.878 2598.878 3646.987 3408.925 3700.745 3451.106 C 3741.187 3482.839 3950.897 3474.649 3950.897 3472.359 C 4140.897 3472.359 4187 3467 4210 3455 Z"/>
    <path d="M 25 1014 C 12.955 958.864 47.186 917.557 54 914 C 59 897 102 850 160 798 C 190 771 256 743 305 737 C 381 727 5627 729 5688 739 C 5717 743 5746 752 5753 759 C 5759 765 5770 770 5778 770 C 5802 770 5932.302 898.932 5942.302 931.932 C 5945.302 942.932 5951.501 960.96 5958.501 969.96 C 5968.501 980.96 5965.373 5045.571 5961.373 5078.571 C 5957.373 5104.571 5897.661 5145.648 5894.661 5145.648 C 5891.661 5145.648 5911 1028 5881 990 C 5813 901 5757 854 5686 829 C 5631 810 5593 810 2972 813 C 73 815 303 811 206 870 C 171 891 50 1032 50 1051 C 50 1056 46 1060 41 1060 C 36 1060 30.404 1038.735 25 1014 Z"/>
  </g>
</svg>